<svg width="36.000000" height="36.000000" viewBox="0 0 36 36" fill="none" xmlns="http://www.w3.org/2000/svg" xmlns:xlink="http://www.w3.org/1999/xlink">
	<desc>
			Created with Pixso.
	</desc>
	<defs/>
	<rect id="Компоненты 1" width="36.000000" height="36.000000" fill="#FFFFFF" fill-opacity="0"/>
	<path id="Union" d="M0 0L35 0L35 2L0 2L0 0ZM9.03125 7L34.999 7L34.999 9L9.03125 9L9.03125 7ZM35 14L0 14L0 16L35 16L35 14Z" clip-rule="evenodd" fill="#C19D7A" fill-opacity="1.000000" fill-rule="evenodd"/>
	<path id="МЕНЮ" d="M32.6466 26.2029Q32.0082 25.9395 31.2611 25.9395Q30.5514 25.9395 29.936 26.1804Q29.7533 26.2519 29.5789 26.3447Q29.2236 26.5344 28.9302 26.7942Q28.5968 27.0894 28.3436 27.4751Q28.2141 27.6732 28.1141 27.8853Q27.8479 28.4491 27.7894 29.1108L26.3392 29.1108L26.3392 26.0005L25.6092 26.0005L25.6092 33L26.3392 33L26.3392 29.7798L27.7796 29.7798Q27.8256 30.4877 28.1028 31.089Q28.1937 31.2861 28.3094 31.4717Q28.5641 31.8769 28.9059 32.1857Q29.1963 32.4482 29.5496 32.6411Q29.7244 32.7362 29.9078 32.8098Q30.534 33.061 31.2611 33.061Q32.015 33.061 32.6583 32.7942Q32.8586 32.711 33.0482 32.6021Q33.4209 32.3873 33.7185 32.0958Q34.0603 31.7611 34.303 31.3252Q34.3941 31.1626 34.467 30.9922Q34.7596 30.3082 34.7596 29.499Q34.7596 28.7007 34.4734 28.0233Q34.3981 27.8451 34.303 27.6753Q34.0583 27.2359 33.713 26.9Q33.4174 26.6125 33.0482 26.4009Q32.8531 26.2881 32.6466 26.2029ZM8.44971 33L8.44971 26.0005L7.83936 26.0005L4.8291 31.1909L1.78955 26.0005L1.1792 26.0005L1.1792 33L1.88965 33L1.88965 27.4312L4.64111 32.1089L4.99023 32.1089L7.73926 27.3994L7.73926 33L8.44971 33ZM15.7579 33L15.7579 32.3604L11.5489 32.3604L11.5489 29.7603L15.1696 29.7603L15.1696 29.1304L11.5489 29.1304L11.5489 26.6401L15.609 26.6401L15.609 26.0005L10.8092 26.0005L10.8092 33L15.7579 33ZM23.2488 33L23.2488 26.0005L22.5188 26.0005L22.5188 29.1206L18.1389 29.1206L18.1389 26.0005L17.3992 26.0005L17.3992 33L18.1389 33L18.1389 29.77L22.5188 29.77L22.5188 33L23.2488 33ZM32.3016 32.2072Q31.8197 32.3994 31.2611 32.3994Q30.7329 32.3994 30.2711 32.2244Q30.0584 32.1437 29.8597 32.0259Q29.6005 31.8712 29.3868 31.6685Q29.0811 31.3787 28.8685 30.9907Q28.8289 30.9177 28.7936 30.8426Q28.5096 30.2375 28.5096 29.499Q28.5096 28.7538 28.7989 28.1463Q28.8318 28.0771 28.8685 28.0098Q29.083 27.6184 29.3921 27.3278Q29.6037 27.1288 29.8597 26.9771Q30.0633 26.8555 30.2816 26.7733Q30.7389 26.6011 31.2611 26.6011Q31.8134 26.6011 32.2908 26.7902Q32.4866 26.8677 32.6697 26.9771Q32.9298 27.1312 33.1436 27.3341Q33.4478 27.6227 33.6585 28.0098Q33.699 28.0836 33.735 28.1597Q34.0198 28.762 34.0198 29.499Q34.0198 30.2293 33.7402 30.8292Q33.7019 30.9112 33.6585 30.9907Q33.4496 31.3744 33.1489 31.6621Q32.933 31.8687 32.6697 32.0259Q32.4916 32.1315 32.3016 32.2072Z" fill="#C19D7A" fill-opacity="1.000000" fill-rule="evenodd"/>
</svg>
