<svg width="14.000000" height="14.000000" viewBox="0 0 14 14" fill="none" xmlns="http://www.w3.org/2000/svg" xmlns:xlink="http://www.w3.org/1999/xlink">
	<desc>
			Created with Pixso.
	</desc>
	<defs/>
	<path id="Vector" d="M11.96 2.03C10.64 0.72 8.89 0 7.02 0C3.18 0 0.05 3.11 0.05 6.93C0.05 8.15 0.37 9.35 0.98 10.4L0 14L3.69 13.03C4.71 13.58 5.86 13.87 7.02 13.87L7.02 13.87C10.87 13.87 13.99 10.76 14 6.94C14 5.08 13.27 3.34 11.96 2.03ZM7.02 12.7L7.02 12.7C5.98 12.7 4.96 12.42 4.07 11.9L3.86 11.77L1.67 12.35L2.25 10.22L2.12 10C1.54 9.08 1.23 8.02 1.23 6.93C1.23 3.75 3.83 1.17 7.03 1.17C8.57 1.17 10.03 1.77 11.12 2.86C12.22 3.95 12.82 5.4 12.82 6.94C12.82 10.12 10.22 12.7 7.02 12.7ZM10.2 8.38C10.03 8.3 9.17 7.88 9.01 7.82C8.85 7.76 8.74 7.73 8.62 7.91C8.5 8.08 8.17 8.47 8.07 8.59C7.97 8.7 7.87 8.72 7.69 8.63C7.52 8.54 6.96 8.36 6.29 7.77C5.77 7.31 5.42 6.74 5.32 6.57C5.22 6.4 5.32 6.31 5.4 6.22C5.59 5.98 5.78 5.74 5.83 5.62C5.89 5.51 5.86 5.41 5.82 5.32C5.78 5.23 5.43 4.38 5.28 4.03C5.14 3.69 5 3.74 4.89 3.73C4.79 3.73 4.67 3.73 4.56 3.73C4.44 3.73 4.25 3.77 4.09 3.95C3.93 4.12 3.48 4.54 3.48 5.39C3.48 6.24 4.11 7.07 4.19 7.18C4.28 7.3 5.42 9.05 7.17 9.8C7.58 9.98 7.91 10.09 8.16 10.17C8.58 10.3 8.96 10.28 9.26 10.24C9.59 10.19 10.29 9.82 10.43 9.41C10.58 9.01 10.58 8.66 10.54 8.59C10.49 8.51 10.38 8.47 10.2 8.38Z" fill="#99999D" fill-opacity="1.000000" fill-rule="evenodd"/>
</svg>
