<svg width="16.000000" height="16.000000" viewBox="0 0 16 16" fill="none" xmlns="http://www.w3.org/2000/svg" xmlns:xlink="http://www.w3.org/1999/xlink">
	<desc>
			Created with Pixso.
	</desc>
	<defs>
		<clipPath id="clip1_239">
			<rect id="vk-social-network-logo_icon-icons.com_73339 1" width="16.000000" height="16.000000" fill="white" fill-opacity="0"/>
		</clipPath>
	</defs>
	<rect id="vk-social-network-logo_icon-icons.com_73339 1" width="16.000000" height="16.000000" fill="#FFFFFF" fill-opacity="0"/>
	<g clip-path="url(#clip1_239)">
		<path id="Vector" d="M15.91 11.67C15.89 11.63 15.87 11.6 15.86 11.57C15.58 11.07 15.05 10.46 14.26 9.73L14.25 9.71L14.24 9.7L14.23 9.7L14.22 9.7C13.87 9.36 13.64 9.13 13.55 9.01C13.38 8.79 13.34 8.57 13.43 8.34C13.5 8.17 13.75 7.8 14.18 7.25C14.41 6.95 14.59 6.72 14.72 6.54C15.68 5.26 16.1 4.45 15.97 4.09L15.92 4.01C15.89 3.96 15.8 3.91 15.66 3.87C15.53 3.83 15.35 3.82 15.13 3.85L12.73 3.87C12.69 3.85 12.64 3.85 12.57 3.87C12.49 3.89 12.46 3.89 12.46 3.89L12.42 3.92L12.38 3.94C12.35 3.96 12.32 3.99 12.29 4.03C12.26 4.07 12.23 4.12 12.21 4.17C11.95 4.85 11.65 5.47 11.32 6.05C11.11 6.39 10.92 6.69 10.75 6.94C10.58 7.2 10.43 7.38 10.32 7.5C10.2 7.62 10.09 7.72 10 7.79C9.91 7.86 9.83 7.89 9.78 7.88C9.73 7.87 9.69 7.86 9.64 7.85C9.56 7.8 9.5 7.73 9.45 7.64C9.41 7.56 9.37 7.45 9.36 7.32C9.34 7.19 9.33 7.08 9.33 6.98C9.33 6.89 9.33 6.75 9.33 6.58C9.34 6.41 9.34 6.29 9.34 6.23C9.34 6.02 9.35 5.79 9.35 5.54C9.36 5.3 9.37 5.1 9.37 4.96C9.38 4.81 9.38 4.66 9.38 4.5C9.38 4.34 9.37 4.21 9.35 4.12C9.33 4.03 9.31 3.94 9.27 3.85C9.23 3.77 9.17 3.7 9.1 3.65C9.02 3.61 8.93 3.57 8.82 3.54C8.52 3.47 8.15 3.44 7.69 3.43C6.66 3.42 6 3.49 5.7 3.63C5.58 3.69 5.48 3.78 5.38 3.88C5.29 4 5.27 4.07 5.34 4.08C5.68 4.13 5.91 4.25 6.05 4.44L6.1 4.54C6.14 4.61 6.18 4.74 6.22 4.92C6.26 5.11 6.28 5.31 6.29 5.53C6.32 5.94 6.32 6.28 6.29 6.57C6.27 6.86 6.24 7.09 6.21 7.25C6.19 7.41 6.15 7.54 6.1 7.64C6.05 7.74 6.02 7.8 6 7.82C5.98 7.84 5.97 7.86 5.96 7.86C5.89 7.89 5.81 7.91 5.74 7.91C5.66 7.91 5.56 7.87 5.45 7.79C5.34 7.71 5.23 7.6 5.11 7.47C4.99 7.33 4.85 7.14 4.7 6.9C4.55 6.65 4.4 6.36 4.24 6.03L4.1 5.79C4.02 5.63 3.91 5.41 3.76 5.11C3.62 4.81 3.49 4.53 3.38 4.25C3.33 4.13 3.27 4.04 3.18 3.98L3.14 3.96C3.11 3.93 3.06 3.91 3 3.89C2.94 3.86 2.88 3.84 2.81 3.83L0.53 3.85C0.29 3.85 0.14 3.9 0.05 4.01L0.02 4.06C0 4.08 0 4.13 0 4.19C0 4.25 0.01 4.33 0.04 4.41C0.38 5.2 0.74 5.95 1.13 6.68C1.52 7.41 1.86 7.99 2.15 8.44C2.44 8.88 2.74 9.3 3.04 9.7C3.34 10.09 3.53 10.34 3.63 10.45C3.73 10.57 3.8 10.65 3.86 10.7L4.07 10.9C4.2 11.04 4.4 11.2 4.66 11.38C4.91 11.57 5.2 11.75 5.51 11.93C5.83 12.11 6.19 12.26 6.61 12.37C7.03 12.49 7.43 12.53 7.83 12.51L8.78 12.51C8.98 12.5 9.12 12.43 9.23 12.33L9.26 12.29C9.28 12.25 9.3 12.2 9.32 12.13C9.34 12.06 9.35 11.99 9.35 11.9C9.34 11.66 9.36 11.45 9.4 11.26C9.45 11.07 9.49 10.92 9.55 10.82C9.6 10.73 9.66 10.65 9.72 10.58C9.79 10.51 9.84 10.47 9.87 10.46C9.89 10.44 9.92 10.43 9.93 10.43C10.07 10.38 10.22 10.43 10.4 10.56C10.58 10.69 10.75 10.85 10.91 11.04C11.07 11.23 11.26 11.45 11.48 11.69C11.71 11.93 11.9 12.1 12.07 12.22L12.23 12.32C12.34 12.39 12.49 12.45 12.67 12.5C12.84 12.56 13 12.57 13.13 12.55L15.26 12.51C15.48 12.51 15.64 12.48 15.76 12.41C15.87 12.34 15.94 12.26 15.96 12.18C15.99 12.1 15.99 12 15.97 11.9C15.95 11.79 15.93 11.72 15.91 11.67Z" fill="#99999D" fill-opacity="1.000000" fill-rule="nonzero"/>
	</g>
</svg>
