<svg width="16.000000" height="16.000000" viewBox="0 0 16 16" fill="none" xmlns="http://www.w3.org/2000/svg" xmlns:xlink="http://www.w3.org/1999/xlink">
	<desc>
			Created with Pixso.
	</desc>
	<defs>
		<clipPath id="clip1_242">
			<rect id="youtube-play-button-outlined-social-symbol_icon-icons.com_74040 1" width="16.000000" height="16.000000" fill="white" fill-opacity="0"/>
		</clipPath>
	</defs>
	<rect id="youtube-play-button-outlined-social-symbol_icon-icons.com_74040 1" width="16.000000" height="16.000000" fill="#FFFFFF" fill-opacity="0"/>
	<g clip-path="url(#clip1_242)">
		<path id="Vector" d="M12.79 2.13L3.2 2.13C1.43 2.13 0 3.56 0 5.33L0 10.66C0 12.43 1.43 13.86 3.2 13.86L12.79 13.86C14.56 13.86 16 12.43 16 10.66L16 5.33C16 3.56 14.56 2.13 12.79 2.13ZM15.28 10.66C15.28 12.03 14.17 13.15 12.79 13.15L3.2 13.15C1.82 13.15 0.71 12.03 0.71 10.66L0.71 5.33C0.71 3.96 1.82 2.84 3.2 2.84L12.79 2.84C14.17 2.84 15.28 3.96 15.28 5.33L15.28 10.66ZM5.68 11L10.89 8L5.68 4.99L5.68 11ZM6.4 6.22L9.47 8L6.4 9.77L6.4 6.22Z" fill="#99999D" fill-opacity="1.000000" fill-rule="nonzero"/>
	</g>
</svg>
