<svg width="21.000000" height="21.000000" viewBox="0 0 21 21" fill="none" xmlns="http://www.w3.org/2000/svg" xmlns:xlink="http://www.w3.org/1999/xlink">
	<desc>
			Created with Pixso.
	</desc>
	<defs/>
	<path id="Youtube" d="M20.79 6.27C20.79 6.27 20.58 4.81 19.95 4.17C19.15 3.32 18.26 3.32 17.85 3.27C14.91 3.06 10.5 3.06 10.5 3.06L10.49 3.06C10.49 3.06 6.08 3.06 3.14 3.27C2.73 3.32 1.84 3.32 1.04 4.17C0.41 4.81 0.2 6.27 0.2 6.27C0.2 6.27 0 7.98 0 9.69L0 11.29C0 13.01 0.2 14.72 0.2 14.72C0.2 14.72 0.41 16.17 1.04 16.82C1.84 17.66 2.89 17.63 3.36 17.72C5.04 17.88 10.5 17.93 10.5 17.93C10.5 17.93 14.91 17.93 17.85 17.71C18.26 17.66 19.15 17.66 19.95 16.82C20.58 16.17 20.79 14.72 20.79 14.72C20.79 14.72 21 13.01 21 11.29L21 9.69C21 7.98 20.79 6.27 20.79 6.27ZM8.33 13.24L8.33 7.3L14 10.28L8.33 13.24Z" fill="#FFFFFF" fill-opacity="1.000000" fill-rule="evenodd"/>
</svg>
