<svg width="30.000000" height="30.000000" viewBox="0 0 30 30" fill="none" xmlns="http://www.w3.org/2000/svg" xmlns:xlink="http://www.w3.org/1999/xlink">
	<desc>
			Created with Pixso.
	</desc>
	<defs>
		<clipPath id="clip1_259">
			<rect width="16.000000" height="16.000000" transform="translate(7.000000 8.000000)" fill="white" fill-opacity="0"/>
		</clipPath>
	</defs>
	<circle cx="15.000000" cy="15.000000" r="15.000000" fill="#2F6AC2" fill-opacity="1.000000"/>
	<rect width="16.000000" height="16.000000" transform="translate(7.000000 8.000000)" fill="#FFFFFF" fill-opacity="0"/>
	<g clip-path="url(#clip1_259)">
		<path d="M22.91 19.67C22.89 19.63 22.87 19.6 22.86 19.57C22.58 19.07 22.05 18.46 21.26 17.73L21.25 17.71L21.24 17.7L21.23 17.7L21.22 17.7C20.87 17.36 20.64 17.13 20.55 17.01C20.38 16.79 20.34 16.57 20.43 16.34C20.5 16.17 20.75 15.8 21.18 15.25C21.41 14.95 21.59 14.72 21.72 14.54C22.68 13.26 23.1 12.45 22.97 12.09L22.92 12.01C22.89 11.96 22.8 11.91 22.66 11.87C22.53 11.83 22.35 11.82 22.13 11.85L19.73 11.87C19.69 11.85 19.64 11.85 19.57 11.87C19.49 11.89 19.46 11.89 19.46 11.89L19.42 11.91L19.38 11.94C19.35 11.96 19.32 11.99 19.29 12.03C19.26 12.07 19.23 12.12 19.21 12.17C18.95 12.85 18.65 13.47 18.32 14.05C18.11 14.39 17.92 14.69 17.75 14.94C17.58 15.2 17.43 15.38 17.32 15.5C17.2 15.62 17.09 15.72 17 15.79C16.91 15.86 16.83 15.89 16.78 15.88C16.73 15.87 16.69 15.86 16.64 15.85C16.56 15.8 16.5 15.73 16.45 15.64C16.41 15.56 16.37 15.45 16.36 15.32C16.34 15.19 16.33 15.08 16.33 14.98C16.33 14.89 16.33 14.75 16.33 14.58C16.34 14.41 16.34 14.29 16.34 14.23C16.34 14.02 16.35 13.79 16.35 13.54C16.36 13.3 16.37 13.1 16.37 12.96C16.38 12.81 16.38 12.66 16.38 12.5C16.38 12.34 16.37 12.21 16.35 12.12C16.33 12.03 16.31 11.94 16.27 11.85C16.23 11.77 16.17 11.7 16.1 11.65C16.02 11.61 15.93 11.57 15.82 11.54C15.52 11.47 15.15 11.44 14.69 11.43C13.66 11.42 13 11.49 12.7 11.63C12.58 11.69 12.48 11.78 12.38 11.88C12.29 12 12.27 12.07 12.34 12.08C12.68 12.13 12.91 12.25 13.05 12.44L13.1 12.54C13.14 12.61 13.18 12.74 13.22 12.92C13.26 13.11 13.28 13.31 13.29 13.53C13.32 13.94 13.32 14.28 13.29 14.57C13.27 14.86 13.24 15.09 13.21 15.25C13.19 15.41 13.15 15.54 13.1 15.64C13.05 15.74 13.02 15.8 13 15.82C12.98 15.84 12.97 15.86 12.96 15.86C12.89 15.89 12.81 15.91 12.74 15.91C12.66 15.91 12.56 15.87 12.45 15.79C12.34 15.71 12.23 15.6 12.11 15.47C11.99 15.33 11.85 15.14 11.7 14.9C11.55 14.65 11.4 14.36 11.24 14.03L11.1 13.79C11.02 13.63 10.91 13.41 10.76 13.11C10.62 12.81 10.49 12.53 10.38 12.25C10.33 12.13 10.27 12.04 10.18 11.98L10.14 11.96C10.11 11.93 10.06 11.91 10 11.89C9.94 11.86 9.88 11.84 9.81 11.83L7.53 11.85C7.29 11.85 7.14 11.9 7.05 12.01L7.02 12.06C7 12.08 7 12.13 7 12.19C7 12.25 7.01 12.33 7.04 12.41C7.38 13.2 7.74 13.95 8.13 14.68C8.52 15.41 8.86 15.99 9.15 16.44C9.44 16.88 9.74 17.3 10.04 17.7C10.34 18.09 10.53 18.34 10.63 18.45C10.73 18.57 10.8 18.65 10.86 18.7L11.07 18.9C11.2 19.04 11.4 19.2 11.66 19.38C11.91 19.57 12.2 19.75 12.51 19.93C12.83 20.11 13.19 20.26 13.61 20.37C14.03 20.49 14.43 20.53 14.83 20.51L15.78 20.51C15.98 20.5 16.12 20.43 16.23 20.33L16.26 20.29C16.28 20.25 16.3 20.2 16.32 20.13C16.34 20.06 16.35 19.99 16.35 19.9C16.34 19.66 16.36 19.45 16.4 19.26C16.45 19.07 16.49 18.92 16.55 18.83C16.6 18.73 16.66 18.65 16.72 18.58C16.79 18.51 16.84 18.47 16.87 18.46C16.89 18.44 16.92 18.43 16.93 18.43C17.07 18.39 17.22 18.43 17.4 18.56C17.58 18.69 17.75 18.85 17.91 19.04C18.07 19.23 18.26 19.45 18.48 19.69C18.7 19.93 18.9 20.1 19.07 20.22L19.23 20.32C19.34 20.39 19.49 20.45 19.67 20.5C19.84 20.56 20 20.57 20.13 20.55L22.26 20.51C22.48 20.51 22.64 20.48 22.76 20.41C22.87 20.34 22.94 20.26 22.96 20.18C22.99 20.1 22.99 20 22.97 19.9C22.95 19.79 22.93 19.72 22.91 19.67Z" fill="#FFFFFF" fill-opacity="1.000000" fill-rule="nonzero"/>
	</g>
</svg>
