<svg width="23.000000" height="23.000000" viewBox="0 0 23 23" fill="none" xmlns="http://www.w3.org/2000/svg" xmlns:xlink="http://www.w3.org/1999/xlink">
	<desc>
			Created with Pixso.
	</desc>
	<defs>
		<clipPath id="clip1_151">
			<rect id="ruler_pencil_icon_125169 1" width="23.000000" height="23.000000" fill="white" fill-opacity="0"/>
		</clipPath>
	</defs>
	<rect id="ruler_pencil_icon_125169 1" width="23.000000" height="23.000000" fill="#FFFFFF" fill-opacity="0"/>
	<g clip-path="url(#clip1_151)">
		<path id="Vector" d="M11.7 0.23L3.7 0.23C3.44 0.23 3.26 0.41 3.26 0.66L3.26 22.08C3.26 22.33 3.44 22.51 3.7 22.51L11.68 22.51C11.93 22.51 12.12 22.33 12.12 22.08L12.12 0.66C12.14 0.41 11.93 0.23 11.7 0.23ZM11.04 21.41L4.36 21.39L4.36 20.83L6.57 20.83C6.89 20.83 7.12 20.58 7.12 20.28C7.12 19.96 6.87 19.73 6.57 19.73L4.36 19.73L4.36 18.65L5.24 18.65C5.56 18.65 5.79 18.4 5.79 18.1C5.79 17.77 5.54 17.54 5.24 17.54L4.36 17.54L4.36 16.46L5.24 16.46C5.56 16.46 5.79 16.21 5.79 15.91C5.79 15.59 5.54 15.36 5.24 15.36L4.36 15.34L4.36 14.26L6.57 14.26C6.89 14.26 7.12 14 7.12 13.7C7.12 13.38 6.87 13.15 6.57 13.15L4.36 13.13L4.36 12.05L5.24 12.05C5.56 12.05 5.79 11.79 5.79 11.5C5.79 11.17 5.54 10.94 5.24 10.94L4.36 10.94L4.36 9.86L5.24 9.86C5.56 9.86 5.79 9.61 5.79 9.31C5.79 8.99 5.54 8.76 5.24 8.76L4.36 8.76L4.36 7.68L6.57 7.68C6.89 7.68 7.12 7.42 7.12 7.13C7.12 6.8 6.87 6.57 6.57 6.57L4.36 6.57L4.36 5.49L5.24 5.49C5.56 5.49 5.79 5.24 5.79 4.94C5.79 4.62 5.54 4.39 5.24 4.39L4.36 4.39L4.36 3.31L5.24 3.31C5.56 3.31 5.79 3.05 5.79 2.76C5.79 2.43 5.54 2.2 5.24 2.2L4.36 2.2L4.36 1.42L11.04 1.42L11.04 21.41Z" fill="#000000" fill-opacity="1.000000" fill-rule="nonzero"/>
		<path id="Vector" d="M19.2 0.25L13.86 0.23C13.61 0.23 13.4 0.43 13.43 0.66L13.4 16.07L16.53 23L19.64 16.07L19.64 0.69C19.64 0.43 19.45 0.25 19.2 0.25ZM17.82 16.49L18.26 16.49L16.53 20.3L14.81 16.49L15.24 16.49C15.57 16.49 15.79 16.23 15.79 15.93C15.79 15.61 15.54 15.38 15.24 15.38L14.48 15.38L14.48 5.52L18.51 5.52L18.53 15.38L17.82 15.41C17.5 15.41 17.27 15.66 17.27 15.96C17.27 16.26 17.52 16.51 17.82 16.49ZM18.56 4.41L14.51 4.43L14.53 1.35L18.56 1.35L18.56 4.41Z" fill="#000000" fill-opacity="1.000000" fill-rule="nonzero"/>
	</g>
</svg>
