<svg width="38.000000" height="38.000000" viewBox="0 0 38 38" fill="none" xmlns="http://www.w3.org/2000/svg" xmlns:xlink="http://www.w3.org/1999/xlink">
	<desc>
			Created with Pixso.
	</desc>
	<defs>
		<filter id="filter_49_2_dd" x="0.000000" y="0.000000" width="38.000000" height="38.000000" filterUnits="userSpaceOnUse" color-interpolation-filters="sRGB">
			<feFlood flood-opacity="0" result="BackgroundImageFix"/>
			<feColorMatrix in="SourceAlpha" type="matrix" values="0 0 0 0 0 0 0 0 0 0 0 0 0 0 0 0 0 0 127 0" result="hardAlpha"/>
			<feOffset dx="0" dy="4"/>
			<feGaussianBlur stdDeviation="1.33333"/>
			<feComposite in2="hardAlpha" operator="out" k2="-1" k3="1"/>
			<feColorMatrix type="matrix" values="0 0 0 0 0 0 0 0 0 0 0 0 0 0 0 0 0 0 0.25 0"/>
			<feBlend mode="normal" in2="BackgroundImageFix" result="effect_dropShadow_1"/>
			<feBlend mode="normal" in="SourceGraphic" in2="effect_dropShadow_1" result="shape"/>
		</filter>
		<clipPath id="clip1_263">
			<rect id="Youtube_icon-icons.com_66802 2" width="15.000000" height="15.000000" transform="translate(12.000000 8.000000)" fill="white" fill-opacity="0"/>
		</clipPath>
	</defs>
	<g filter="url(#filter_49_2_dd)">
		<rect id="Компоненты 18" width="30.000000" height="30.000000" transform="translate(4.000000 0.000000)" fill="#FFFFFF" fill-opacity="0"/>
		<circle id="Ellipse 87" cx="19.000000" cy="15.000000" r="15.000000" fill="#EB2626" fill-opacity="1.000000"/>
		<rect id="Youtube_icon-icons.com_66802 2" width="15.000000" height="15.000000" transform="translate(12.000000 8.000000)" fill="#FFFFFF" fill-opacity="0"/>
		<g clip-path="url(#clip1_263)">
			<path id="Youtube" d="M26.84 12.47C26.84 12.47 26.7 11.43 26.25 10.98C25.68 10.37 25.04 10.37 24.75 10.34C22.65 10.18 19.5 10.18 19.5 10.18L19.49 10.18C19.49 10.18 16.34 10.18 14.24 10.34C13.95 10.37 13.31 10.37 12.74 10.98C12.29 11.43 12.15 12.47 12.15 12.47C12.15 12.47 12 13.7 12 14.92L12 16.07C12 17.29 12.15 18.51 12.15 18.51C12.15 18.51 12.29 19.55 12.74 20.01C13.31 20.61 14.06 20.59 14.4 20.66C15.59 20.77 19.5 20.81 19.5 20.81C19.5 20.81 22.65 20.8 24.75 20.65C25.04 20.61 25.68 20.61 26.25 20.01C26.7 19.55 26.84 18.51 26.84 18.51C26.84 18.51 27 17.29 27 16.07L27 14.92C27 13.7 26.84 12.47 26.84 12.47ZM17.95 17.45L17.95 13.21L22 15.34L17.95 17.45Z" fill="#FFFFFF" fill-opacity="1.000000" fill-rule="evenodd"/>
		</g>
	</g>
</svg>
