<svg width="30.000000" height="30.000000" viewBox="0 0 30 30" fill="none" xmlns="http://www.w3.org/2000/svg" xmlns:xlink="http://www.w3.org/1999/xlink">
	<desc>
			Created with Pixso.
	</desc>
	<defs>
		<clipPath id="clip1_253">
			<rect id="Флатикон вотсап" width="30.000000" height="30.000000" fill="white" fill-opacity="0"/>
		</clipPath>
	</defs>
	<rect id="Флатикон вотсап" width="30.000000" height="30.000000" fill="#FFFFFF" fill-opacity="0"/>
	<g clip-path="url(#clip1_253)">
		<path id="Vector" d="M30 15C30 23.28 23.28 30 15 30C6.71 30 0 23.28 0 15C0 6.71 6.71 0 15 0C23.28 0 30 6.71 30 15Z" fill="#25D366" fill-opacity="1.000000" fill-rule="evenodd"/>
		<path id="Vector" d="M20.66 9.32C19.16 7.82 17.16 7 15.03 7C10.64 7 7.06 10.55 7.06 14.92C7.06 16.32 7.43 17.68 8.12 18.89L7 23L11.22 21.89C12.38 22.52 13.69 22.86 15.03 22.86L15.03 22.86C19.42 22.86 22.99 19.3 23 14.93C23 12.81 22.17 10.82 20.66 9.32ZM15.03 21.52L15.03 21.52C13.84 21.52 12.67 21.2 11.66 20.6L11.41 20.46L8.91 21.11L9.58 18.68L9.42 18.43C8.76 17.38 8.41 16.17 8.41 14.92C8.41 11.29 11.38 8.33 15.03 8.33C16.8 8.33 18.46 9.02 19.71 10.27C20.96 11.51 21.65 13.17 21.65 14.93C21.65 18.56 18.68 21.52 15.03 21.52ZM18.66 16.58C18.46 16.48 17.48 16 17.3 15.94C17.12 15.87 16.99 15.84 16.85 16.04C16.72 16.24 16.34 16.68 16.22 16.81C16.11 16.95 15.99 16.96 15.79 16.86C15.59 16.77 14.95 16.56 14.19 15.88C13.6 15.36 13.2 14.71 13.08 14.51C12.97 14.31 13.08 14.21 13.17 14.1C13.39 13.84 13.6 13.56 13.67 13.43C13.73 13.29 13.7 13.18 13.65 13.08C13.6 12.98 13.2 12.01 13.04 11.61C12.88 11.22 12.71 11.27 12.59 11.27C12.47 11.26 12.34 11.26 12.21 11.26C12.08 11.26 11.86 11.31 11.68 11.51C11.5 11.71 10.98 12.19 10.98 13.16C10.98 14.14 11.69 15.08 11.79 15.21C11.89 15.34 13.2 17.34 15.19 18.2C15.67 18.41 16.04 18.53 16.33 18.62C16.81 18.77 17.24 18.75 17.58 18.7C17.96 18.64 18.76 18.22 18.93 17.76C19.09 17.29 19.09 16.9 19.04 16.81C18.99 16.73 18.86 16.68 18.66 16.58Z" fill="#FFFFFF" fill-opacity="1.000000" fill-rule="evenodd"/>
	</g>
</svg>
